Coordinates
version=1
nRows=16
nColumns=63
inDegrees=yes

Units are S.I. units (second, meters, Newtons, ...)
If the header above contains a line with 'inDegrees', this indicates whether rotational values are in degrees (yes) or radians (no).

endheader
time	pelvis_tilt	pelvis_list	pelvis_rotation	pelvis_tx	pelvis_ty	pelvis_tz	hip_flexion_r	hip_adduction_r	hip_rotation_r	knee_angle_r	knee_angle_r_beta	ankle_angle_r	subtalar_angle_r	mtp_angle_r	hip_flexion_l	hip_adduction_l	hip_rotation_l	knee_angle_l	knee_angle_l_beta	ankle_angle_l	subtalar_angle_l	mtp_angle_l	L5_S1_Flex_Ext	L5_S1_Lat_Bending	L5_S1_axial_rotation	L4_L5_Flex_Ext	L4_L5_Lat_Bending	L4_L5_axial_rotation	L3_L4_Flex_Ext	L3_L4_Lat_Bending	L3_L4_axial_rotation	L2_L3_Flex_Ext	L2_L3_Lat_Bending	L2_L3_axial_rotation	L1_L2_Flex_Ext	L1_L2_Lat_Bending	L1_L2_axial_rotation	L1_T12_Flex_Ext	L1_T12_Lat_Bending	L1_T12_axial_rotation	Abs_r3	Abs_r2	Abs_r1	Abs_t1	Abs_t2	neck_flexion	neck_bending	neck_rotation	arm_flex_r	arm_add_r	arm_rot_r	elbow_flex_r	pro_sup_r	wrist_flex_r	wrist_dev_r	arm_flex_l	arm_add_l	arm_rot_l	elbow_flex_l	pro_sup_l	wrist_flex_l	wrist_dev_l
3.271186	-2.630097	-4.395901	82.252297	0.179905	0.768581	0.741595	13.135381	2.399990	10.884060	19.006977	0.331734	21.932388	-12.456259	0.000000	4.764361	0.485011	-3.163705	2.778140	0.048488	29.565255	-1.751903	0.000000	0.238862	-0.294032	1.316777	0.443591	-0.391062	1.399075	0.392426	-0.714909	1.399075	0.272995	-0.714909	1.152180	0.221807	-0.599590	1.069881	0.136486	-0.455455	0.987583	1.706168	-3.326146	7.323517	0.000000	0.000000	27.792403	-3.965037	-12.801448	7.469393	-16.292685	50.490641	60.044751	81.329149	21.568698	4.151807	14.493543	-17.878607	62.476612	61.193928	79.334495	15.562508	-5.825866
3.288136	-2.596956	-4.478137	82.315294	0.179968	0.768377	0.741477	13.230954	2.421785	10.742567	19.031952	0.332170	21.983511	-12.283611	0.000000	4.849276	0.431531	-2.900615	2.803125	0.048924	29.546670	-1.737759	0.000000	0.254673	-0.285012	1.297306	0.472954	-0.379066	1.378388	0.418403	-0.692978	1.378388	0.291066	-0.692978	1.135143	0.236490	-0.581196	1.054061	0.145520	-0.441483	0.972980	1.819107	-3.224111	7.215229	0.000000	0.000000	27.792128	-4.178459	-12.972273	7.632769	-16.368764	51.018958	59.902344	79.936477	21.393814	4.254368	14.349828	-17.802317	62.141412	61.179273	78.777916	16.021004	-5.234458
3.305085	-2.574279	-4.577063	82.396643	0.180068	0.768151	0.741343	13.345376	2.443025	10.638296	19.055062	0.332574	22.028599	-12.182325	0.000000	4.962673	0.388666	-2.562886	2.848160	0.049710	29.528793	-1.844731	0.000000	0.271869	-0.276883	1.280147	0.504887	-0.368254	1.360156	0.446653	-0.673213	1.360156	0.310719	-0.673213	1.120129	0.252457	-0.564619	1.040120	0.155346	-0.428891	0.960110	1.941931	-3.132153	7.119794	0.000000	0.000000	27.792737	-4.416166	-13.101024	7.829217	-16.468040	51.679304	59.761177	78.125261	21.006497	4.358264	14.250231	-17.742217	61.953140	61.189762	78.147335	16.250742	-4.666880
3.322034	-2.558500	-4.677799	82.494835	0.180195	0.767935	0.741217	13.463033	2.452124	10.497854	19.070680	0.332846	22.102840	-12.031979	0.000000	5.088898	0.354450	-2.167456	2.904425	0.050692	29.513571	-2.062224	0.000000	0.287133	-0.270130	1.275256	0.533235	-0.359273	1.354960	0.471731	-0.656793	1.354960	0.328165	-0.656793	1.115849	0.266632	-0.550849	1.036146	0.164068	-0.418431	0.956442	2.050965	-3.055762	7.092593	0.000000	0.000000	27.792866	-4.728476	-13.331112	7.968676	-16.596354	52.260436	59.657360	75.840604	20.484694	4.634260	14.277059	-17.698193	62.053532	61.220725	77.337735	16.208621	-4.100312
3.338983	-2.561029	-4.789244	82.601339	0.180378	0.767704	0.741132	13.606926	2.463699	10.448680	19.102519	0.333402	22.160384	-12.028743	0.000000	5.250938	0.336727	-1.748843	2.990578	0.052195	29.513352	-2.369194	0.000000	0.302670	-0.264528	1.263708	0.562088	-0.351822	1.342690	0.497256	-0.643172	1.342690	0.345921	-0.643172	1.105745	0.281059	-0.539425	1.026763	0.172946	-0.409753	0.947781	2.161941	-2.992389	7.028367	0.000000	0.000000	27.794562	-5.021952	-13.422656	8.212784	-16.712898	53.033183	59.508162	73.585360	19.849740	4.759898	14.293849	-17.693188	62.164659	61.303311	76.664260	16.023612	-3.576925
3.355932	-2.570104	-4.887619	82.752001	0.180518	0.767516	0.741065	13.732645	2.441754	10.271881	19.116739	0.333650	22.273198	-11.875595	0.000000	5.418015	0.332681	-1.319684	3.092014	0.053966	29.528147	-2.714143	0.000000	0.314718	-0.258979	1.245951	0.584463	-0.344442	1.323823	0.517050	-0.629681	1.323823	0.359691	-0.629681	1.090208	0.292247	-0.528110	1.012336	0.179830	-0.401158	0.934464	2.247999	-2.929621	6.929608	0.000000	0.000000	27.796582	-5.331013	-13.453434	8.498975	-16.843363	53.875120	59.367736	71.167632	19.142476	4.939094	14.382108	-17.726931	62.469144	61.418889	75.761098	15.582421	-3.077915
3.372881	-2.586904	-4.979370	82.911353	0.180666	0.767344	0.741033	13.858988	2.416631	10.124604	19.136165	0.333989	22.392132	-11.771011	0.000000	5.598337	0.339489	-0.896062	3.218270	0.056169	29.547346	-3.125814	0.000000	0.325091	-0.252302	1.214415	0.603726	-0.335561	1.290316	0.534091	-0.613446	1.290316	0.371546	-0.613446	1.062613	0.301879	-0.514493	0.986712	0.185757	-0.390815	0.910811	2.322089	-2.854087	6.754213	0.000000	0.000000	27.801709	-5.602771	-13.269344	8.927608	-16.962148	54.957017	59.195082	68.860454	18.375246	4.993894	14.424766	-17.796348	62.708798	61.583390	74.904622	15.060715	-2.612591
3.389831	-2.608544	-5.067015	83.072154	0.180814	0.767187	0.741044	13.992104	2.388760	9.986126	19.167342	0.334533	22.513930	-11.682047	0.000000	5.798129	0.352031	-0.529025	3.378788	0.058971	29.576860	-3.535179	0.000000	0.334466	-0.243622	1.168151	0.621136	-0.324017	1.241161	0.549494	-0.592341	1.241161	0.382261	-0.592341	1.022132	0.310585	-0.496793	0.949123	0.191114	-0.377370	0.876114	2.389054	-2.755896	6.496908	0.000000	0.000000	27.812554	-5.826996	-12.835311	9.510872	-17.068825	56.294069	58.989813	66.803710	17.555739	4.864223	14.372074	-17.884930	62.749463	61.797436	74.213635	14.595071	-2.134250
3.406780	-2.635232	-5.148116	83.225860	0.180963	0.767046	0.741112	14.131941	2.362116	9.877652	19.214114	0.335350	22.631085	-11.631883	0.000000	6.016804	0.368574	-0.255613	3.576593	0.062423	29.624691	-3.882036	0.000000	0.342781	-0.232618	1.107177	0.636578	-0.309381	1.176376	0.563154	-0.565586	1.176376	0.391764	-0.565586	0.968780	0.318306	-0.474354	0.899582	0.195865	-0.360325	0.830383	2.448447	-2.631417	6.157788	0.000000	0.000000	27.831014	-5.981874	-12.119261	10.261394	-17.166355	57.894527	58.768366	65.085350	16.689823	4.539134	14.202395	-17.987278	62.554989	62.048344	73.603896	14.220618	-1.674680
3.423729	-2.669391	-5.225430	83.381088	0.181101	0.766919	0.741252	14.282527	2.325869	9.751024	19.276647	0.336441	22.762029	-11.565159	0.000000	6.260271	0.395041	-0.010687	3.809799	0.066494	29.672116	-4.224651	0.000000	0.350694	-0.219500	1.031892	0.651273	-0.291935	1.096386	0.576154	-0.533693	1.096386	0.400808	-0.533693	0.902906	0.325654	-0.447605	0.838413	0.200386	-0.340006	0.773919	2.504969	-2.483029	5.739076	0.000000	0.000000	27.856454	-6.043476	-11.110937	11.165859	-17.251900	59.737761	58.535694	63.655575	15.821971	4.031640	13.932969	-18.104367	62.166445	62.310604	73.075742	13.924609	-1.343787
3.440678	-2.718500	-5.292980	83.517992	0.181266	0.766804	0.741497	14.448099	2.280627	9.634583	19.369574	0.338063	22.911464	-11.497442	0.000000	6.521260	0.431830	0.128787	4.074348	0.071111	29.737954	-4.456111	0.000000	0.357086	-0.205542	0.948753	0.663144	-0.273370	1.008050	0.586656	-0.499754	1.008050	0.408113	-0.499754	0.830159	0.331590	-0.419140	0.770862	0.204039	-0.318384	0.711565	2.550627	-2.325128	5.276678	0.000000	0.000000	27.887714	-5.993497	-9.842979	12.200147	-17.323101	61.757916	58.298402	62.555963	15.011233	3.336409	13.581446	-18.243832	61.607035	62.585730	72.637677	13.694427	-1.147420
3.457627	-2.775298	-5.345228	83.626790	0.181449	0.766711	0.741850	14.614106	2.226460	9.491708	19.475283	0.339908	23.086099	-11.364648	0.000000	6.789789	0.471989	0.162062	4.366224	0.076205	29.825261	-4.572384	0.000000	0.360998	-0.189806	0.861054	0.670410	-0.252442	0.914870	0.593084	-0.461494	0.914870	0.412585	-0.461494	0.753423	0.335223	-0.387052	0.699607	0.206275	-0.294010	0.645791	2.578576	-2.147124	4.788926	0.000000	0.000000	27.921673	-5.835838	-8.343256	13.326800	-17.397071	63.886858	58.096807	61.675688	14.239951	2.571068	13.150989	-18.385509	60.873735	62.858272	72.273311	13.569410	-1.070319
3.474576	-2.845360	-5.382788	83.674958	0.181724	0.766628	0.742332	14.787023	2.177100	9.404802	19.603734	0.342150	23.258680	-11.256298	0.000000	7.058486	0.517094	0.149954	4.677217	0.081633	29.914009	-4.689004	0.000000	0.362637	-0.173776	0.776508	0.673454	-0.231122	0.825040	0.595777	-0.422518	0.825040	0.414458	-0.422518	0.679445	0.336745	-0.354364	0.630913	0.207211	-0.269179	0.582381	2.590283	-1.965786	4.318706	0.000000	0.000000	27.951667	-5.547598	-6.661827	14.477026	-17.450089	65.964861	57.913145	61.196272	13.620191	1.681556	12.639387	-18.530082	59.936535	63.132472	72.136948	13.595383	-1.121955
3.491525	-2.927073	-5.402992	83.671129	0.182055	0.766553	0.742927	14.957534	2.127066	9.360575	19.748976	0.344685	23.423194	-11.160557	0.000000	7.318910	0.565603	0.003327	5.001151	0.087287	30.018922	-4.678961	0.000000	0.361827	-0.157907	0.697836	0.671949	-0.210016	0.741451	0.594446	-0.383934	0.741451	0.413532	-0.383934	0.610607	0.335993	-0.322003	0.566992	0.206748	-0.244597	0.523377	2.584494	-1.786271	3.881156	0.000000	0.000000	27.972163	-5.132204	-4.887437	15.567537	-17.487533	67.858576	57.776477	60.876628	13.173654	0.856430	12.082908	-18.666586	58.871750	63.399096	72.253913	13.715895	-1.336965
3.508475	-3.013631	-5.407744	83.637501	0.182434	0.766488	0.743623	15.115081	2.083825	9.352994	19.898887	0.347301	23.550389	-11.128251	0.000000	7.569391	0.611799	-0.189688	5.335342	0.093119	30.110156	-4.635984	0.000000	0.358640	-0.142703	0.623445	0.666030	-0.189794	0.662410	0.589209	-0.346967	0.662410	0.409889	-0.346967	0.545514	0.333033	-0.290999	0.506549	0.204927	-0.221046	0.467584	2.561728	-1.614280	3.467414	0.000000	0.000000	27.982474	-4.588702	-3.104851	16.548155	-17.496214	69.470108	57.668084	60.716419	12.922770	0.111807	11.472006	-18.779438	57.627637	63.678055	72.613101	14.007478	-1.525509
3.525424	-3.107939	-5.400007	83.550562	0.182906	0.766422	0.744379	15.260902	2.049435	9.403258	20.054752	0.350021	23.620128	-11.161619	0.000000	7.796433	0.654769	-0.470139	5.663558	0.098848	30.183052	-4.548764	0.000000	0.354114	-0.129190	0.559953	0.657625	-0.171823	0.594950	0.581774	-0.314114	0.594950	0.404717	-0.314114	0.489959	0.328830	-0.263445	0.454962	0.202341	-0.200116	0.419965	2.529402	-1.461428	3.114289	0.000000	0.000000	27.984162	-3.933213	-1.372165	17.369676	-17.473015	70.739263	57.592698	60.558968	12.839073	-0.454698	10.813960	-18.861618	56.213011	63.980592	73.198056	14.487930	-1.589928
